<svg width="40" height="40" viewBox="0 0 40 40" fill="none" xmlns="http://www.w3.org/2000/svg">
  <rect width="40" height="40" rx="10" fill="#0B2340"/>
  <circle cx="20" cy="20" r="9" stroke="#0D8070" stroke-width="1.5"/>
  <line x1="20" y1="8" x2="20" y2="11" stroke="#0D8070" stroke-width="2" stroke-linecap="round"/>
  <line x1="20" y1="29" x2="20" y2="32" stroke="#0D8070" stroke-width="2" stroke-linecap="round"/>
  <line x1="8" y1="20" x2="11" y2="20" stroke="#0D8070" stroke-width="2" stroke-linecap="round"/>
  <line x1="29" y1="20" x2="32" y2="20" stroke="#0D8070" stroke-width="2" stroke-linecap="round"/>
  <line x1="11.5" y1="11.5" x2="13.5" y2="13.5" stroke="#0D8070" stroke-width="2" stroke-linecap="round"/>
  <line x1="26.5" y1="26.5" x2="28.5" y2="28.5" stroke="#0D8070" stroke-width="2" stroke-linecap="round"/>
  <line x1="28.5" y1="11.5" x2="26.5" y2="13.5" stroke="#0D8070" stroke-width="2" stroke-linecap="round"/>
  <line x1="13.5" y1="26.5" x2="11.5" y2="28.5" stroke="#0D8070" stroke-width="2" stroke-linecap="round"/>
  <path d="M17 18 Q20 14 23 18 Q20 22 17 18" fill="#E07A5F" opacity="0.9"/>
  <path d="M17 22 Q20 18 23 22 Q20 26 17 22" fill="#E07A5F" opacity="0.9"/>
</svg>
